<svg xmlns="http://www.w3.org/2000/svg" viewBox="0 0 284 64" width="284" height="64" role="img" aria-labelledby="title">
  <title id="title">Mint Shelf logo</title>
  <g fill="#22c55e" transform="translate(32 0) scale(1.0573 1) translate(-32 0) translate(5.5 4) scale(.2994652406) translate(-27 -28)">
    <path id="leaf-top-left" d="M31.25 27.807 27 28.115l.008 25.692c.004 14.131.471 28.554 1.039 32.052 1.579 9.734 5.938 18.286 12.833 25.181 7.003 7.003 15.335 11.315 24.967 12.922 3.734.622 14.771.984 25.153.824l18.5-.286.288-27c.301-28.29-.423-36.595-3.871-44.41-4.76-10.787-15.676-20.563-26.295-23.548-3.438-.967-11.534-1.539-24.622-1.741-10.725-.166-21.413-.163-23.75.006Z"/>
    <path id="leaf-top-right" d="M178 28c-24.05.491-24.606.55-30.281 3.209-3.18 1.49-8.405 5.211-11.611 8.27-7.012 6.688-11.585 15.812-13.051 26.038-.985 6.877-1.031 38.005-.057 38.651.275.183 10.175.095 22-.194 19.111-.467 22.111-.771 27-2.734 10.196-4.095 20.852-14.826 26.317-26.5C202.351 66.124 204 56.51 204 41.612c0-7.422-.338-13.633-.75-13.803-.412-.17-11.775-.084-25.25.191Z"/>
    <path id="leaf-bottom-right" d="M122.675 119.405c-1.007 2.623-.743 49.065.322 56.6.592 4.196 2.345 10.25 3.982 13.754 5.743 12.293 17.871 21.803 30.907 24.236 2.963.553 14.579 1.005 25.814 1.005h20.427l-.314-31.75-.313-31.75-3.215-6.788c-3.793-8.007-12.214-17.267-19.123-21.027-8.389-4.566-15.643-5.654-37.805-5.67-16.384-.012-20.244.247-20.682 1.39Z"/>
    <path id="leaf-bottom-left" d="M70.293 139.136c-2.863.349-8.194 2.033-11.845 3.742-8.92 4.174-18.947 14.191-23.748 23.725-5.394 10.711-6.868 17.805-7.046 33.897l-.154 14h24.5c21.011 0 25.234-.256 29.656-1.799 7.746-2.703 15.6-8.834 20.265-15.821 6.726-10.072 7.579-14.316 7.579-37.719v-20.339l-17-.161c-9.35-.089-19.343.125-22.207.475Z"/>
  </g>
  <path fill="#1a1c19" d="M83.548 47.481L83.548 16.941L91.722 16.941L99.198 39.498L106.78 16.941L114.89 16.941L114.89 47.481L109.167 47.481L109.167 23.827L101.479 47.481L96.917 47.481L89.272 23.953L89.272 47.481ZM120.245 47.481L120.245 25.643L125.652 25.643L125.652 47.481ZM120.161 22.179L120.161 16.963L125.716 16.963L125.716 22.179ZM130.195 47.481L130.195 25.643L135.749 25.643L135.749 28.748Q136.256 27.924 137.101 27.164Q137.946 26.403 139.213 25.917Q140.48 25.432 142.212 25.432Q144.218 25.432 145.961 26.213Q147.703 26.995 148.77 28.695Q149.836 30.395 149.836 33.098L149.836 47.481L144.176 47.481L144.176 33.774Q144.176 31.831 143.057 30.86Q141.937 29.888 140.29 29.888Q139.171 29.888 138.146 30.279Q137.122 30.669 136.488 31.44Q135.855 32.211 135.855 33.373L135.855 47.481ZM163.135 47.692Q160.389 47.692 158.89 46.974Q157.39 46.256 156.809 44.957Q156.229 43.658 156.229 41.905L156.229 29.592L152.681 29.592L152.681 25.643L156.419 25.643L157.834 19.096L161.868 19.096L161.868 25.622L166.746 25.622L166.746 29.592L161.868 29.592L161.91 41.673Q161.91 42.56 162.121 42.982Q162.332 43.405 162.797 43.542Q163.262 43.679 164.022 43.679L166.831 43.679L166.831 47.185Q166.387 47.375 165.511 47.534Q164.634 47.692 163.135 47.692ZM190.936 47.903Q188.655 47.903 186.522 47.344Q184.389 46.784 182.636 45.654Q180.883 44.524 179.742 42.835Q178.602 41.145 178.349 38.906L184.178 38.906Q184.495 40.364 185.455 41.367Q186.416 42.37 187.895 42.898Q189.373 43.426 191.253 43.426Q192.816 43.426 194.199 42.961Q195.582 42.497 196.448 41.567Q197.314 40.638 197.314 39.244Q197.314 37.618 196.163 36.752Q195.012 35.886 192.943 35.379L187.071 34.049Q184.706 33.542 182.942 32.496Q181.179 31.451 180.218 29.761Q179.257 28.072 179.257 25.622Q179.257 22.834 180.799 20.796Q182.34 18.758 184.991 17.66Q187.641 16.561 190.978 16.561Q194.738 16.561 197.325 17.797Q199.912 19.032 201.274 21.123Q202.637 23.214 202.679 25.727L196.976 25.727Q196.807 24.017 195.963 23.003Q195.118 21.989 193.787 21.524Q192.457 21.06 190.809 21.06Q187.937 21.06 186.564 22.274Q185.191 23.489 185.191 25.094Q185.191 26.593 186.216 27.501Q187.24 28.41 189.415 28.895L194.907 30.12Q197.821 30.712 199.606 31.937Q201.39 33.162 202.204 34.883Q203.017 36.604 203.017 38.695Q203.017 41.42 201.475 43.489Q199.933 45.559 197.219 46.731Q194.505 47.903 190.936 47.903ZM206.903 47.481L206.903 16.097L212.5 16.097L212.5 28.811Q213.049 28.008 213.872 27.248Q214.696 26.488 215.932 25.981Q217.167 25.474 218.899 25.474Q220.99 25.474 222.722 26.287Q224.454 27.1 225.488 28.621Q226.523 30.141 226.523 32.317L226.523 47.481L220.863 47.481L220.863 33.204Q220.863 31.599 219.733 30.743Q218.603 29.888 216.935 29.888Q215.837 29.888 214.823 30.279Q213.809 30.669 213.186 31.451Q212.563 32.232 212.563 33.394L212.563 47.481ZM240.557 47.903Q237.367 47.903 234.939 46.552Q232.51 45.2 231.148 42.708Q229.785 40.216 229.785 36.794Q229.785 33.478 231.031 30.86Q232.278 28.241 234.611 26.731Q236.945 25.22 240.261 25.22Q243.534 25.22 245.773 26.604Q248.012 27.987 249.152 30.479Q250.293 32.972 250.293 36.245L250.293 37.871L235.403 37.871Q235.403 39.624 235.984 40.955Q236.565 42.285 237.695 43.035Q238.825 43.785 240.43 43.785Q242.141 43.785 243.397 43.035Q244.654 42.285 245.118 40.68L250.251 40.68Q249.87 42.982 248.413 44.598Q246.956 46.214 244.886 47.059Q242.816 47.903 240.557 47.903ZM235.403 34.429L244.992 34.429Q244.992 32.972 244.464 31.789Q243.936 30.606 242.89 29.909Q241.845 29.212 240.24 29.212Q238.677 29.212 237.6 29.972Q236.523 30.733 235.963 31.926Q235.403 33.119 235.403 34.429ZM260.56 47.84Q258.279 47.84 256.948 47.291Q255.618 46.742 254.963 45.823Q254.308 44.904 254.108 43.774Q253.907 42.644 253.907 41.462L253.907 16.097L259.462 16.097L259.462 40.807Q259.462 42.095 260.011 42.866Q260.56 43.637 261.933 43.785L262.989 43.827L262.989 47.354Q262.397 47.544 261.764 47.692Q261.13 47.84 260.56 47.84ZM269.05 47.481L269.05 29.592L264.89 29.592L264.89 25.643L269.05 25.643L269.05 22.454Q269.05 19.814 270.56 18.378Q272.071 16.941 274.858 16.941L279.674 16.941L279.695 20.743L276.738 20.743Q275.513 20.743 275.07 21.356Q274.626 21.968 274.626 23.32L274.626 25.643L279.484 25.643L279.484 29.592L274.711 29.592L274.711 47.481Z"/>
</svg>
