<svg xmlns="http://www.w3.org/2000/svg" viewBox="0 0 254 64" width="254" height="64" role="img" aria-labelledby="title">
  <title id="title">Mint Shelf logo</title>
  <style>svg &gt; path { fill: #1a1c19; transform: translate(85.9px, 44.4px) scale(.74396) translate(-76px, -49px); }</style>
  <g fill="#22c55e" transform="translate(5.5 4) scale(.2994652406) translate(-27 -28)">
    <path id="leaf-top-left" d="M31.25 27.807 27 28.115l.008 25.692c.004 14.131.471 28.554 1.039 32.052 1.579 9.734 5.938 18.286 12.833 25.181 7.003 7.003 15.335 11.315 24.967 12.922 3.734.622 14.771.984 25.153.824l18.5-.286.288-27c.301-28.29-.423-36.595-3.871-44.41-4.76-10.787-15.676-20.563-26.295-23.548-3.438-.967-11.534-1.539-24.622-1.741-10.725-.166-21.413-.163-23.75.006Z"/>
    <path id="leaf-top-right" d="M178 28c-24.05.491-24.606.55-30.281 3.209-3.18 1.49-8.405 5.211-11.611 8.27-7.012 6.688-11.585 15.812-13.051 26.038-.985 6.877-1.031 38.005-.057 38.651.275.183 10.175.095 22-.194 19.111-.467 22.111-.771 27-2.734 10.196-4.095 20.852-14.826 26.317-26.5C202.351 66.124 204 56.51 204 41.612c0-7.422-.338-13.633-.75-13.803-.412-.17-11.775-.084-25.25.191Z"/>
    <path id="leaf-bottom-right" d="M122.675 119.405c-1.007 2.623-.743 49.065.322 56.6.592 4.196 2.345 10.25 3.982 13.754 5.743 12.293 17.871 21.803 30.907 24.236 2.963.553 14.579 1.005 25.814 1.005h20.427l-.314-31.75-.313-31.75-3.215-6.788c-3.793-8.007-12.214-17.267-19.123-21.027-8.389-4.566-15.643-5.654-37.805-5.67-16.384-.012-20.244.247-20.682 1.39Z"/>
    <path id="leaf-bottom-left" d="M70.293 139.136c-2.863.349-8.194 2.033-11.845 3.742-8.92 4.174-18.947 14.191-23.748 23.725-5.394 10.711-6.868 17.805-7.046 33.897l-.154 14h24.5c21.011 0 25.234-.256 29.656-1.799 7.746-2.703 15.6-8.834 20.265-15.821 6.726-10.072 7.579-14.316 7.579-37.719v-20.339l-17-.161c-9.35-.089-19.343.125-22.207.475Z"/>
  </g>
  <path fill="#22c55e" d="M81.223 49L76.209 49L76.209 15.742L83.155 15.742L92.516 42.192L102.015 15.742L108.915 15.742L108.915 49L103.878 49L103.878 22.504L94.678 49L90.377 49L81.223 22.711L81.223 49ZM121.404 20.618L116.459 20.618L116.459 15.765L121.404 15.765L121.404 20.618ZM121.312 49L116.574 49L116.574 25.218L121.312 25.218L121.312 49ZM133.249 49L128.327 49L128.327 25.218L133.134 25.218L133.134 28.645Q133.985 27.219 135.790 26.069Q137.596 24.919 140.425 24.919L140.425 24.919Q142.656 24.919 144.553 25.805Q146.451 26.690 147.601 28.564Q148.751 30.439 148.751 33.406L148.751 33.406L148.751 49L143.829 49L143.829 33.935Q143.829 31.382 142.449 30.140Q141.069 28.898 138.930 28.898L138.930 28.898Q137.458 28.898 136.159 29.381Q134.859 29.864 134.054 30.841Q133.249 31.819 133.249 33.291L133.249 33.291L133.249 49ZM163.264 49.161L163.264 49.161Q160.619 49.161 159.170 48.448Q157.721 47.735 157.146 46.389Q156.571 45.044 156.571 43.135L156.571 43.135L156.571 28.760L152.707 28.760L152.707 25.218L156.732 25.218L157.928 18.226L161.516 18.226L161.516 25.195L166.852 25.195L166.852 28.760L161.516 28.760L161.539 42.951Q161.539 44.699 162.114 45.102Q162.689 45.504 164.207 45.504L164.207 45.504L166.967 45.504L166.967 48.701Q166.507 48.885 165.598 49.023Q164.690 49.161 163.264 49.161ZM195.786 49.460L195.786 49.460Q192.543 49.460 189.668 48.402Q186.793 47.344 184.872 45.239Q182.952 43.135 182.538 39.984L182.538 39.984L187.667 39.984Q188.265 42.675 190.542 44.066Q192.819 45.458 196.039 45.458L196.039 45.458Q197.994 45.458 199.684 44.849Q201.375 44.239 202.410 43.054Q203.445 41.870 203.445 40.168L203.445 40.168Q203.445 38.259 202.168 37.144Q200.892 36.028 198.339 35.361L198.339 35.361L191.669 33.705Q188.012 32.854 185.781 30.807Q183.550 28.760 183.550 24.873L183.550 24.873Q183.550 21.975 185.148 19.836Q186.747 17.697 189.495 16.513Q192.244 15.328 195.717 15.328L195.717 15.328Q199.696 15.328 202.421 16.685Q205.147 18.042 206.561 20.262Q207.976 22.481 207.999 25.080L207.999 25.080L202.985 25.080Q202.778 22.964 201.731 21.710Q200.685 20.457 199.075 19.905Q197.465 19.353 195.556 19.353L195.556 19.353Q192.152 19.353 190.438 20.860Q188.725 22.366 188.725 24.436L188.725 24.436Q188.725 26.345 189.967 27.449Q191.209 28.553 193.693 29.151L193.693 29.151L200.133 30.738Q204.687 31.773 206.561 34.177Q208.436 36.580 208.436 39.731L208.436 39.731Q208.436 42.583 206.849 44.768Q205.262 46.953 202.421 48.206Q199.581 49.460 195.786 49.460ZM219.338 49L214.416 49L214.416 14.822L219.269 14.822L219.269 28.691Q220.143 27.288 221.902 26.127Q223.662 24.965 226.514 24.965L226.514 24.965Q228.837 24.965 230.712 25.828Q232.586 26.690 233.701 28.311Q234.817 29.933 234.817 32.164L234.817 32.164L234.817 49L229.895 49L229.895 33.061Q229.895 31.060 228.515 29.979Q227.135 28.898 224.973 28.898L224.973 28.898Q222.765 28.898 221.051 29.991Q219.338 31.083 219.338 33.314L219.338 33.314L219.338 49ZM251.446 49.460L251.446 49.460Q248.065 49.460 245.489 47.999Q242.913 46.539 241.475 43.825Q240.038 41.111 240.038 37.362L240.038 37.362Q240.038 33.659 241.349 30.819Q242.660 27.978 245.132 26.368Q247.605 24.758 251.124 24.758L251.124 24.758Q256.276 24.758 259.001 27.989Q261.727 31.221 261.727 36.626L261.727 36.626L261.727 38.259L244.983 38.259Q244.960 41.456 246.558 43.595Q248.157 45.734 251.331 45.734L251.331 45.734Q253.470 45.734 255.022 44.768Q256.575 43.802 257.058 41.893L257.058 41.893L261.612 41.893Q261.175 44.354 259.657 46.033Q258.139 47.712 255.965 48.586Q253.792 49.460 251.446 49.460ZM244.983 35.062L244.983 35.062L257.035 35.062Q257.035 32.256 255.575 30.313Q254.114 28.369 251.101 28.369L251.101 28.369Q249.054 28.369 247.685 29.358Q246.317 30.347 245.650 31.888Q244.983 33.429 244.983 35.062ZM273.779 49.322L273.779 49.322Q270.950 49.322 269.581 48.379Q268.213 47.436 267.776 45.929Q267.339 44.423 267.339 42.721L267.339 42.721L267.339 14.822L272.192 14.822L272.192 42.215Q272.192 45.527 274.860 45.734L274.860 45.734L276.102 45.780L276.102 48.908Q274.837 49.322 273.779 49.322ZM288.522 49L283.577 49L283.577 28.760L278.724 28.760L278.724 25.218L283.577 25.218L283.577 21.607Q283.577 18.778 285.083 17.260Q286.590 15.742 289.534 15.742L289.534 15.742L294.295 15.742L294.318 19.146L290.868 19.146Q289.465 19.146 288.947 19.893Q288.430 20.641 288.430 22.182L288.430 22.182L288.430 25.218L294.088 25.218L294.088 28.760L288.522 28.760L288.522 49Z"/>
</svg>
