<svg xmlns="http://www.w3.org/2000/svg" viewBox="0 0 64 64" width="64" height="64" role="img" aria-labelledby="title">
  <title id="title">Mint Shelf mark</title>
  <g fill="#22c55e" transform="translate(32 0) scale(1.0573 1) translate(-32 0) translate(5.5 4) scale(.2994652406) translate(-27 -28)">
    <path id="leaf-top-left" d="M31.25 27.807 27 28.115l.008 25.692c.004 14.131.471 28.554 1.039 32.052 1.579 9.734 5.938 18.286 12.833 25.181 7.003 7.003 15.335 11.315 24.967 12.922 3.734.622 14.771.984 25.153.824l18.5-.286.288-27c.301-28.29-.423-36.595-3.871-44.41-4.76-10.787-15.676-20.563-26.295-23.548-3.438-.967-11.534-1.539-24.622-1.741-10.725-.166-21.413-.163-23.75.006Z"/>
    <path id="leaf-top-right" d="M178 28c-24.05.491-24.606.55-30.281 3.209-3.18 1.49-8.405 5.211-11.611 8.27-7.012 6.688-11.585 15.812-13.051 26.038-.985 6.877-1.031 38.005-.057 38.651.275.183 10.175.095 22-.194 19.111-.467 22.111-.771 27-2.734 10.196-4.095 20.852-14.826 26.317-26.5C202.351 66.124 204 56.51 204 41.612c0-7.422-.338-13.633-.75-13.803-.412-.17-11.775-.084-25.25.191Z"/>
    <path id="leaf-bottom-right" d="M122.675 119.405c-1.007 2.623-.743 49.065.322 56.6.592 4.196 2.345 10.25 3.982 13.754 5.743 12.293 17.871 21.803 30.907 24.236 2.963.553 14.579 1.005 25.814 1.005h20.427l-.314-31.75-.313-31.75-3.215-6.788c-3.793-8.007-12.214-17.267-19.123-21.027-8.389-4.566-15.643-5.654-37.805-5.67-16.384-.012-20.244.247-20.682 1.39Z"/>
    <path id="leaf-bottom-left" d="M70.293 139.136c-2.863.349-8.194 2.033-11.845 3.742-8.92 4.174-18.947 14.191-23.748 23.725-5.394 10.711-6.868 17.805-7.046 33.897l-.154 14h24.5c21.011 0 25.234-.256 29.656-1.799 7.746-2.703 15.6-8.834 20.265-15.821 6.726-10.072 7.579-14.316 7.579-37.719v-20.339l-17-.161c-9.35-.089-19.343.125-22.207.475Z"/>
  </g>
</svg>
